<svg width="98" height="98" viewBox="0 0 98 98" fill="none" xmlns="http://www.w3.org/2000/svg">
<path opacity="0.5" d="M97 49C97 75.5097 75.5097 97 49 97C22.4903 97 1 75.5097 1 49C1 22.4903 22.4903 1 49 1C75.5097 1 97 22.4903 97 49ZM5.70166 49C5.70166 72.913 25.087 92.2983 49 92.2983C72.913 92.2983 92.2983 72.913 92.2983 49C92.2983 25.087 72.913 5.70166 49 5.70166C25.087 5.70166 5.70166 25.087 5.70166 49Z" fill="#F68080"/>
<path d="M94.7956 49C96.5653 49 98.0109 50.4365 97.8953 52.2025C97.1212 64.0288 92.0798 75.2167 83.6482 83.6482C74.4589 92.8375 61.9956 98 49 98C36.0044 98 23.541 92.8375 14.3518 83.6482C5.92024 75.2167 0.878789 64.0288 0.104673 52.2025C-0.0109199 50.4365 1.43466 49 3.2044 49C4.97414 49 6.39625 50.4368 6.5292 52.2015C7.29204 62.3265 11.6541 71.8871 18.8835 79.1165C26.8709 87.1039 37.7041 91.5912 49 91.5912C60.2959 91.5912 71.1291 87.1039 79.1165 79.1165C86.3459 71.8872 90.708 62.3265 91.4708 52.2015C91.6037 50.4368 93.0259 49 94.7956 49Z" fill="#FF4948"/>
<circle cx="48.5" cy="48.5" r="34.5" stroke="#FDD8D8" stroke-width="2" stroke-linecap="round"/>
<path d="M60.3377 59.1459H53.1042C52.7049 59.1459 52.3809 58.8218 52.3809 58.4226C52.3809 58.0233 52.7049 57.6992 53.1042 57.6992H60.3377C61.5342 57.6992 62.5078 56.7256 62.5078 55.5291V54.0824C62.5078 53.6831 62.8319 53.3591 63.2312 53.3591H64.6648C65.0641 53.3591 65.3882 53.035 65.3882 52.6357V43.9555C65.3882 43.5562 65.0641 43.2321 64.6648 43.2321H63.2312C62.8319 43.2321 62.5078 42.9081 62.5078 42.5088V41.0621C62.5078 39.8657 61.5342 38.892 60.3377 38.892H55.9976C55.5983 38.892 55.2743 38.568 55.2743 38.1687C55.2743 37.7694 55.5983 37.4453 55.9976 37.4453H60.3377C62.3313 37.4453 63.9545 39.0685 63.9545 41.0621V41.7854H64.6648C65.8613 41.7854 66.8349 42.7591 66.8349 43.9555V52.6357C66.8349 53.8322 65.8613 54.8058 64.6648 54.8058H63.9545V55.5291C63.9545 57.5227 62.3313 59.1459 60.3377 59.1459Z" fill="#FF4948"/>
<path d="M41.4036 59.1459H35.6168C33.6232 59.1459 32 57.5227 32 55.5291V41.0621C32 39.0685 33.6232 37.4453 35.6168 37.4453H45.7437C46.143 37.4453 46.4671 37.7694 46.4671 38.1687C46.4671 38.568 46.143 38.892 45.7437 38.892H35.6168C34.4203 38.892 33.4467 39.8657 33.4467 41.0621V55.5291C33.4467 56.7256 34.4203 57.6992 35.6168 57.6992H41.4036C41.8029 57.6992 42.1269 58.0233 42.1269 58.4226C42.1269 58.8218 41.8029 59.1459 41.4036 59.1459Z" fill="#FF4948"/>
<path d="M45.5218 62.0394C45.4075 62.0394 45.2904 62.0119 45.1833 61.9554C44.8723 61.7905 44.7247 61.4245 44.8361 61.0889L47.8655 51.9124H42.1901C41.921 51.9124 41.675 51.7634 41.5492 51.5247C41.4248 51.286 41.4421 50.9981 41.5955 50.7767L51.6154 36.3097C51.8121 36.0261 52.1868 35.9248 52.4993 36.0579C52.8161 36.1968 52.9912 36.5397 52.9174 36.8768L50.8804 46.1256H56.6571C56.932 46.1256 57.1837 46.2818 57.3067 46.5292C57.4282 46.7766 57.3979 47.0717 57.23 47.2902L46.0947 61.7572C45.9544 61.941 45.7403 62.0394 45.5218 62.0394ZM43.5717 50.4657H48.8666C49.0995 50.4657 49.3165 50.5771 49.4525 50.7652C49.5885 50.9532 49.6261 51.1948 49.5524 51.4162L47.5414 57.5054L55.1873 47.5723H49.9806C49.7621 47.5723 49.5538 47.4725 49.4164 47.3017C49.2789 47.131 49.2269 46.9068 49.2731 46.6927L50.7141 40.1521L43.5717 50.4657Z" fill="#FF4948"/>
</svg>
