<?xml version="1.0" encoding="UTF-8" standalone="no"?>
<svg
   xmlns:dc="http://purl.org/dc/elements/1.1/"
   xmlns:cc="http://creativecommons.org/ns#"
   xmlns:rdf="http://www.w3.org/1999/02/22-rdf-syntax-ns#"
   xmlns:svg="http://www.w3.org/2000/svg"
   xmlns="http://www.w3.org/2000/svg"
   xmlns:sodipodi="http://sodipodi.sourceforge.net/DTD/sodipodi-0.dtd"
   xmlns:inkscape="http://www.inkscape.org/namespaces/inkscape"
   version="1.0"
   id="Layer_1"
   x="0px"
   y="0px"
   width="1000"
   height="999.98218"
   viewBox="0 0 1000 999.98218"
   enable-background="new 0 0 800 800"
   xml:space="preserve"
   sodipodi:docname="HP_2008.svg"
   inkscape:version="1.0.2-2 (e86c870879, 2021-01-15)"><metadata
   id="metadata751"><rdf:RDF><cc:Work
       rdf:about=""><dc:format>image/svg+xml</dc:format><dc:type
         rdf:resource="http://purl.org/dc/dcmitype/StillImage" /><dc:title></dc:title></cc:Work></rdf:RDF></metadata><defs
   id="defs749">
	
</defs><sodipodi:namedview
   pagecolor="#ffffff"
   bordercolor="#666666"
   borderopacity="1"
   objecttolerance="10"
   gridtolerance="10"
   guidetolerance="10"
   inkscape:pageopacity="0"
   inkscape:pageshadow="2"
   inkscape:window-width="1366"
   inkscape:window-height="705"
   id="namedview747"
   showgrid="false"
   inkscape:zoom="0.5"
   inkscape:cx="371.67777"
   inkscape:cy="470.56749"
   inkscape:window-x="-8"
   inkscape:window-y="-8"
   inkscape:window-maximized="1"
   inkscape:current-layer="layer1"
   inkscape:document-rotation="0"
   inkscape:snap-bbox="false"
   inkscape:bbox-nodes="true"
   inkscape:snap-nodes="true"
   inkscape:snap-page="false" />

<g
   inkscape:groupmode="layer"
   id="layer1"
   inkscape:label="Layer 1"
   transform="translate(-203.54213,-212.70014)"><path
     fill="#015294"
     d="m 704.92585,212.70014 -107.58433,301.62416 73.13054,0.0229 c 52.67961,0.0153 75.09848,41.55119 58.50883,88.06586 L 622.01553,902.3273 H 514.37779 L 632.06504,572.32372 H 576.64268 L 458.9664,902.3273 H 350.40027 L 591.8779,225.21585 c -222.38366,50.731 -388.33577,249.71003 -388.33577,487.46305 0,234.0531 160.82397,430.5126 377.98497,484.9777 L 825.50101,512.64413 h 176.69179 c 36.5447,0 82.5078,24.64109 62.6456,80.72351 l -99.20268,280.1051 C 952.96367,909.25317 922.84273,916.504 898.84655,916.504 H 790.22293 L 684.8706,1212.2989 c 6.20307,0.2273 12.41846,0.3834 18.67223,0.3834 276.14088,0 499.99997,-223.85428 499.99927,-500.00202 -7e-4,-275.68081 -223.11483,-499.23113 -498.61625,-499.98014 z M 913.07939,571.51171 810.61088,859.15638 h 54.56653 L 967.6692,571.51171 Z"
     id="path742"
     style="stroke:none;stroke-width:1.36933"
     sodipodi:nodetypes="cccccccccccccccccccccccccccc" /></g></svg>
